<svg width="348" height="472" viewBox="0 0 348 472" fill="none" xmlns="http://www.w3.org/2000/svg">
<g clip-path="url(#clip0_352_882)">
<mask id="mask0_352_882" style="mask-type:luminance" maskUnits="userSpaceOnUse" x="0" y="0" width="348" height="753">
<path d="M348 0H0V753H348V0Z" fill="white"/>
</mask>
<g mask="url(#mask0_352_882)">
<path d="M348 0H0V753H348V0Z" fill="white"/>
<g filter="url(#filter0_d_352_882)">
<path d="M319.232 328.278H27.84C12.4644 328.278 0 340.734 0 356.099V751.145C0 766.51 12.4644 778.966 27.84 778.966H319.232C334.608 778.966 347.072 766.51 347.072 751.145V356.099C347.072 340.734 334.608 328.278 319.232 328.278Z" fill="white"/>
</g>
<path d="M38.1733 255.916H40.1778V260.961H38.1733V255.916ZM42.9246 255.916H44.9291V260.961H42.9246V255.916ZM35.367 254.878H47.8096V256.465H35.367V254.878ZM41.5586 247.696C42.5386 247.696 43.3998 247.82 44.1422 248.067C44.8945 248.315 45.4785 248.671 45.8942 249.135C46.31 249.6 46.5179 250.144 46.5179 250.768C46.5179 251.391 46.31 251.935 45.8942 252.4C45.4785 252.855 44.8945 253.211 44.1422 253.468C43.3998 253.716 42.5386 253.839 41.5586 253.839C40.5787 253.839 39.7126 253.716 38.9602 253.468C38.2178 253.211 37.6338 252.855 37.2082 252.4C36.7924 251.935 36.5845 251.391 36.5845 250.768C36.5845 250.144 36.7924 249.6 37.2082 249.135C37.6338 248.671 38.2178 248.315 38.9602 248.067C39.7126 247.82 40.5787 247.696 41.5586 247.696ZM41.5586 249.254C40.9548 249.254 40.4302 249.313 39.9847 249.432C39.5492 249.551 39.2126 249.724 38.9751 249.951C38.7375 250.169 38.6187 250.441 38.6187 250.768C38.6187 251.094 38.7375 251.371 38.9751 251.598C39.2126 251.816 39.5492 251.984 39.9847 252.103C40.4302 252.211 40.9548 252.266 41.5586 252.266C42.1625 252.266 42.6822 252.211 43.1177 252.103C43.5532 251.984 43.8898 251.816 44.1273 251.598C44.3748 251.371 44.4985 251.094 44.4985 250.768C44.4985 250.441 44.3748 250.169 44.1273 249.951C43.8898 249.724 43.5532 249.551 43.1177 249.432C42.6822 249.313 42.1625 249.254 41.5586 249.254ZM51.8175 248.29H53.4062V250.278C53.4062 251.128 53.332 251.959 53.1835 252.771C53.035 253.572 52.8024 254.318 52.4856 255.011C52.1787 255.704 51.7878 256.321 51.3126 256.866C50.8375 257.4 50.2782 257.826 49.6348 258.142L48.447 256.554C49.031 256.287 49.5309 255.931 49.9466 255.486C50.3722 255.041 50.7236 254.536 51.0008 253.972C51.2779 253.409 51.4809 252.815 51.6096 252.192C51.7482 251.559 51.8175 250.921 51.8175 250.278V248.29ZM52.2035 248.29H53.7923V250.278C53.7923 250.901 53.8517 251.514 53.9704 252.118C54.0991 252.721 54.2921 253.295 54.5495 253.839C54.8168 254.373 55.1483 254.852 55.5443 255.278C55.9402 255.704 56.4153 256.054 56.9697 256.332L55.767 257.904C55.1533 257.588 54.6187 257.173 54.1635 256.658C53.718 256.134 53.3517 255.535 53.0647 254.863C52.7776 254.18 52.5599 253.453 52.4114 252.682C52.2728 251.9 52.2035 251.099 52.2035 250.278V248.29ZM57.5043 247.236H59.4939V260.976H57.5043V247.236ZM59.0633 252.518H61.4835V254.15H59.0633V252.518ZM70.9256 247.236H72.9004V257.504H70.9256V247.236ZM72.3511 251.42H74.7267V253.053H72.3511V251.42ZM62.0911 248.675H70.1684V250.219H62.0911V248.675ZM66.1297 250.708C66.793 250.708 67.377 250.822 67.8818 251.049C68.3966 251.267 68.7975 251.579 69.0845 251.984C69.3715 252.38 69.5151 252.835 69.5151 253.349C69.5151 253.873 69.3715 254.339 69.0845 254.744C68.7975 255.14 68.3966 255.452 67.8818 255.679C67.377 255.897 66.793 256.005 66.1297 256.005C65.4764 256.005 64.8924 255.897 64.3777 255.679C63.8629 255.452 63.462 255.14 63.175 254.744C62.888 254.339 62.7444 253.873 62.7444 253.349C62.7444 252.835 62.888 252.38 63.175 251.984C63.462 251.579 63.8629 251.267 64.3777 251.049C64.8924 250.822 65.4764 250.708 66.1297 250.708ZM66.1297 252.207C65.6942 252.207 65.3379 252.306 65.0607 252.504C64.7835 252.701 64.6449 252.989 64.6449 253.364C64.6449 253.73 64.7835 254.012 65.0607 254.21C65.3379 254.407 65.6942 254.507 66.1297 254.507C66.5752 254.507 66.9315 254.407 67.1988 254.21C67.476 254.012 67.6145 253.73 67.6145 253.364C67.6145 252.989 67.476 252.701 67.1988 252.504C66.9315 252.306 66.5752 252.207 66.1297 252.207ZM65.1498 247.221H67.1097V249.417H65.1498V247.221ZM64.0362 259.151H73.3904V260.738H64.0362V259.151ZM64.0362 256.732H66.0258V259.833H64.0362V256.732ZM78.0848 253.572H90.5274V255.159H78.0848V253.572ZM84.707 251.138H89.4435V252.696H84.707V251.138ZM84.707 247.859H89.3841V249.417H86.6669V251.732H84.707V247.859ZM79.2578 247.859H84.024V249.417H81.2326V251.732H79.2578V247.859ZM79.2578 251.138H80.0893C80.614 251.138 81.094 251.134 81.5295 251.124C81.975 251.104 82.4006 251.074 82.8065 251.035C83.2124 250.995 83.633 250.935 84.0685 250.857L84.2467 252.385C83.7914 252.474 83.346 252.543 82.9104 252.593C82.4848 252.632 82.0443 252.662 81.5889 252.682C81.1336 252.692 80.6337 252.696 80.0893 252.696H79.2578V251.138ZM83.3261 255.946H85.0188V256.198C85.0188 256.802 84.9 257.366 84.6625 257.89C84.4348 258.404 84.0933 258.869 83.6379 259.284C83.1827 259.689 82.6184 260.031 81.9453 260.308C81.2821 260.595 80.5199 260.798 79.6587 260.916L78.946 259.388C79.7082 259.299 80.3615 259.151 80.9059 258.943C81.4603 258.735 81.9156 258.488 82.2719 258.201C82.6382 257.904 82.9055 257.588 83.0737 257.251C83.2421 256.906 83.3261 256.554 83.3261 256.198V255.946ZM83.6528 255.946H85.3455V256.198C85.3455 256.554 85.4296 256.906 85.5979 257.251C85.7662 257.588 86.0285 257.904 86.3848 258.201C86.7511 258.488 87.2114 258.735 87.7657 258.943C88.3201 259.151 88.9734 259.299 89.7256 259.388L89.0129 260.916C88.1517 260.798 87.3847 260.595 86.7115 260.308C86.0483 260.031 85.489 259.689 85.0337 259.284C84.5784 258.869 84.2319 258.404 83.9943 257.89C83.7667 257.366 83.6528 256.802 83.6528 256.198V255.946ZM100.89 247.207H102.865V260.991H100.89V247.207ZM95.4559 248.171C96.1584 248.171 96.782 248.374 97.3268 248.779C97.8715 249.175 98.2965 249.744 98.6037 250.486C98.9202 251.217 99.0788 252.083 99.0788 253.082C99.0788 254.091 98.9202 254.967 98.6037 255.708C98.2965 256.44 97.8715 257.009 97.3268 257.415C96.782 257.811 96.1584 258.008 95.4559 258.008C94.7627 258.008 94.1447 257.811 93.5999 257.415C93.0552 257.009 92.6248 256.44 92.3081 255.708C92.0012 254.967 91.8478 254.091 91.8478 253.082C91.8478 252.083 92.0012 251.217 92.3081 250.486C92.6248 249.744 93.0552 249.175 93.5999 248.779C94.1447 248.374 94.7627 248.171 95.4559 248.171ZM95.4559 249.966C95.1191 249.966 94.8221 250.085 94.5651 250.322C94.308 250.56 94.1048 250.911 93.9563 251.376C93.818 251.831 93.7484 252.4 93.7484 253.082C93.7484 253.754 93.818 254.329 93.9563 254.803C94.1048 255.268 94.308 255.619 94.5651 255.857C94.8221 256.094 95.1191 256.213 95.4559 256.213C95.8021 256.213 96.1046 256.094 96.3617 255.857C96.6187 255.619 96.8173 255.268 96.9556 254.803C97.1041 254.329 97.1783 253.754 97.1783 253.082C97.1783 252.4 97.1041 251.831 96.9556 251.376C96.8173 250.911 96.6187 250.56 96.3617 250.322C96.1046 250.085 95.8021 249.966 95.4559 249.966ZM111.153 248.171C111.856 248.171 112.475 248.374 113.009 248.779C113.553 249.175 113.979 249.744 114.286 250.486C114.602 251.217 114.761 252.083 114.761 253.082C114.761 254.091 114.602 254.967 114.286 255.708C113.979 256.44 113.553 257.009 113.009 257.415C112.475 257.811 111.856 258.008 111.153 258.008C110.45 258.008 109.826 257.811 109.282 257.415C108.737 257.009 108.307 256.44 107.99 255.708C107.683 254.967 107.53 254.091 107.53 253.082C107.53 252.083 107.683 251.217 107.99 250.486C108.307 249.744 108.737 249.175 109.282 248.779C109.826 248.374 110.45 248.171 111.153 248.171ZM111.153 249.966C110.816 249.966 110.515 250.085 110.247 250.322C109.989 250.56 109.787 250.911 109.639 251.376C109.499 251.831 109.431 252.4 109.431 253.082C109.431 253.754 109.499 254.329 109.639 254.803C109.787 255.268 109.989 255.619 110.247 255.857C110.515 256.094 110.816 256.213 111.153 256.213C111.489 256.213 111.786 256.094 112.044 255.857C112.301 255.619 112.499 255.268 112.638 254.803C112.786 254.329 112.861 253.754 112.861 253.082C112.861 252.4 112.786 251.831 112.638 251.376C112.499 250.911 112.301 250.56 112.044 250.322C111.786 250.085 111.489 249.966 111.153 249.966ZM116.246 247.236H118.236V260.976H116.246V247.236ZM117.805 252.414H120.225V254.032H117.805V252.414ZM130.275 247.221H132.25V257.207H130.275V247.221ZM123.044 259.151H132.607V260.738H123.044V259.151ZM123.044 256.064H125.019V259.878H123.044V256.064ZM121.604 248.245H123.579V253.958H121.604V248.245ZM121.604 253.216H122.792C123.495 253.216 124.193 253.201 124.886 253.171C125.589 253.131 126.296 253.067 127.009 252.978C127.722 252.889 128.444 252.771 129.177 252.622L129.385 254.225C128.642 254.383 127.9 254.507 127.157 254.596C126.425 254.685 125.693 254.749 124.96 254.788C124.238 254.818 123.515 254.833 122.792 254.833H121.604V253.216ZM145.676 247.236H147.65V257.162H145.676V247.236ZM147.101 250.975H149.477V252.593H147.101V250.975ZM137.346 253.334H138.489C139.489 253.334 140.341 253.324 141.043 253.305C141.756 253.275 142.39 253.231 142.944 253.171C143.508 253.112 144.062 253.023 144.607 252.904L144.8 254.462C144.246 254.591 143.676 254.689 143.092 254.759C142.518 254.818 141.864 254.863 141.132 254.892C140.4 254.912 139.518 254.922 138.489 254.922H137.346V253.334ZM137.346 248.319H143.508V249.892H139.321V254.165H137.346V248.319ZM138.786 259.151H148.14V260.738H138.786V259.151ZM138.786 256.109H140.776V259.952H138.786V256.109ZM153.96 248.171C154.643 248.171 155.252 248.374 155.786 248.779C156.33 249.175 156.751 249.744 157.048 250.486C157.354 251.217 157.509 252.083 157.509 253.082C157.509 254.091 157.354 254.967 157.048 255.708C156.751 256.44 156.33 257.009 155.786 257.415C155.252 257.811 154.643 258.008 153.96 258.008C153.277 258.008 152.668 257.811 152.134 257.415C151.599 257.009 151.178 256.44 150.871 255.708C150.564 254.967 150.411 254.091 150.411 253.082C150.411 252.083 150.564 251.217 150.871 250.486C151.178 249.744 151.599 249.175 152.134 248.779C152.668 248.374 153.277 248.171 153.96 248.171ZM153.96 249.966C153.633 249.966 153.341 250.085 153.084 250.322C152.836 250.56 152.643 250.911 152.505 251.376C152.366 251.831 152.297 252.4 152.297 253.082C152.297 253.754 152.366 254.329 152.505 254.803C152.643 255.268 152.836 255.619 153.084 255.857C153.341 256.094 153.633 256.213 153.96 256.213C154.306 256.213 154.603 256.094 154.851 255.857C155.098 255.619 155.291 255.268 155.43 254.803C155.568 254.329 155.638 253.754 155.638 253.082C155.638 252.4 155.568 251.831 155.43 251.376C155.291 250.911 155.098 250.56 154.851 250.322C154.603 250.085 154.306 249.966 153.96 249.966ZM159.765 247.207H161.74V260.991H159.765V247.207ZM156.929 252.177H160.597V253.75H156.929V252.177ZM165.094 250.931H174.626V252.504H165.094V250.931ZM163.565 253.928H176.007V255.501H163.565V253.928ZM165.094 247.711H167.069V251.717H165.094V247.711ZM164.975 259.091H174.701V260.679H164.975V259.091ZM164.975 256.584H166.95V259.522H164.975V256.584ZM178.965 256.272L178.957 255.851C178.885 254.823 179.262 254.163 180.262 253.576C181.198 253.019 181.481 252.657 181.481 251.983V251.976C181.481 251.28 180.922 250.788 180.103 250.788C179.269 250.788 178.725 251.33 178.682 252.077L178.674 252.135H176.71V252.062C176.767 250.36 178.007 249.107 180.233 249.107C182.299 249.107 183.677 250.251 183.677 251.91V251.917C183.677 253.004 183.147 253.765 182.126 254.367C181.161 254.924 180.893 255.286 180.893 255.975V256.272H178.965ZM179.958 259.742C179.305 259.742 178.776 259.243 178.776 258.604C178.776 257.967 179.305 257.468 179.958 257.468C180.618 257.468 181.147 257.967 181.147 258.604C181.147 259.243 180.618 259.742 179.958 259.742Z" fill="black"/>
<path d="M65.6651 191.752H71.2776V232.97H65.6651V191.752ZM60.4089 207.286H67.2687V212.049H60.4089V207.286ZM48.1148 196.826H53.8164C53.8164 199.734 53.564 202.494 53.0591 205.105C52.584 207.717 51.7822 210.195 50.6537 212.539C49.5253 214.854 47.996 217.02 46.0657 219.038C44.1652 221.026 41.7746 222.866 38.8941 224.557L35.4642 220.418C38.5823 218.578 41.0619 216.56 42.9031 214.364C44.7739 212.138 46.1102 209.69 46.9121 207.019C47.7139 204.319 48.1148 201.322 48.1148 198.028V196.826ZM37.5132 196.826H49.852V201.544H37.5132V196.826ZM56.489 192.82H62.057V231.19H56.489V192.82ZM98.446 201.722H106.286V206.53H98.446V201.722ZM104.638 191.796H110.606V216.278H104.638V191.796ZM96.6197 217.168C99.5299 217.168 102.039 217.48 104.148 218.103C106.256 218.726 107.874 219.631 109.003 220.818C110.161 222.005 110.74 223.43 110.74 225.091C110.74 227.643 109.478 229.602 106.954 230.967C104.43 232.362 100.985 233.059 96.6197 233.059C92.2543 233.059 88.8096 232.362 86.2854 230.967C83.7613 229.602 82.4992 227.643 82.4992 225.091C82.4992 223.43 83.0634 222.005 84.1919 220.818C85.35 219.631 86.9833 218.726 89.0917 218.103C91.2001 217.48 93.7094 217.168 96.6197 217.168ZM96.6197 221.664C94.8379 221.664 93.3382 221.797 92.1207 222.065C90.9032 222.302 89.9678 222.673 89.3144 223.177C88.6908 223.682 88.379 224.32 88.379 225.091C88.379 225.863 88.6908 226.516 89.3144 227.05C89.9678 227.554 90.9032 227.94 92.1207 228.207C93.3382 228.445 94.8379 228.563 96.6197 228.563C98.4014 228.563 99.9011 228.445 101.119 228.207C102.336 227.94 103.257 227.554 103.88 227.05C104.504 226.516 104.816 225.863 104.816 225.091C104.816 224.32 104.504 223.682 103.88 223.177C103.257 222.673 102.336 222.302 101.119 222.065C99.9011 221.797 98.4014 221.664 96.6197 221.664ZM85.6173 195.891H90.428V198.518C90.428 201.129 90.0123 203.622 89.1808 205.996C88.3493 208.37 87.0724 210.462 85.35 212.272C83.6573 214.052 81.4895 215.388 78.8466 216.278L75.8622 211.604C77.5548 211.04 79.0099 210.284 80.2275 209.334C81.4747 208.384 82.4844 207.331 83.2565 206.174C84.0583 204.987 84.6522 203.74 85.0382 202.435C85.4243 201.129 85.6173 199.823 85.6173 198.518V195.891ZM86.8645 195.891H91.5862V198.473C91.5862 200.105 91.9128 201.708 92.5662 203.28C93.2195 204.853 94.2291 206.277 95.5951 207.554C96.9909 208.83 98.7726 209.838 100.94 210.58L98.0451 215.21C95.4912 214.349 93.3828 213.088 91.7198 211.426C90.0865 209.735 88.869 207.776 88.0672 205.55C87.2654 203.295 86.8645 200.936 86.8645 198.473V195.891ZM77.4657 194.289H99.6486V198.963H77.4657V194.289Z" fill="#336AF8"/>
<path d="M33.408 238.326H180.96" stroke="#336AF8"/>
<path d="M329.44 228.126C329.44 261.416 302.434 288.403 269.12 288.403C235.806 288.403 208.8 261.416 208.8 228.126C208.8 194.835 235.806 167.849 269.12 167.849C302.434 167.849 329.44 194.835 329.44 228.126ZM213.375 228.126C213.375 258.891 238.333 283.831 269.12 283.831C299.907 283.831 324.865 258.891 324.865 228.126C324.865 197.36 299.907 172.42 269.12 172.42C238.333 172.42 213.375 197.36 213.375 228.126Z" fill="#D9D9D9"/>
<path d="M269.12 167.849C281.907 167.849 294.363 171.909 304.69 179.444L301.993 183.137C292.448 176.173 280.937 172.42 269.12 172.42V167.849Z" fill="url(#paint0_linear_352_882)"/>
<g filter="url(#filter1_d_352_882)">
<path d="M290.464 376.5H57.536C49.8482 376.5 43.616 382.728 43.616 390.41V404.32C43.616 412.003 49.8482 418.23 57.536 418.23H290.464C298.152 418.23 304.384 412.003 304.384 404.32V390.41C304.384 382.728 298.152 376.5 290.464 376.5Z" fill="white"/>
</g>
<path d="M169.937 390.503H171.292V391.449C171.292 392.091 171.168 392.698 170.921 393.266C170.673 393.823 170.333 394.335 169.9 394.806C169.479 395.276 168.984 395.696 168.415 396.067C167.845 396.438 167.227 396.747 166.559 396.994C165.903 397.242 165.229 397.421 164.536 397.532L163.905 396.289C164.523 396.203 165.124 396.055 165.706 395.844C166.299 395.634 166.85 395.381 167.357 395.084C167.864 394.775 168.31 394.428 168.694 394.045C169.089 393.662 169.392 393.254 169.603 392.821C169.826 392.376 169.937 391.919 169.937 391.449V390.503ZM170.197 390.503H171.533V391.449C171.533 391.919 171.645 392.37 171.867 392.803C172.09 393.236 172.393 393.644 172.777 394.027C173.172 394.41 173.624 394.757 174.132 395.065C174.638 395.374 175.183 395.634 175.765 395.844C176.359 396.055 176.958 396.203 177.565 396.289L176.953 397.532C176.26 397.421 175.585 397.242 174.93 396.994C174.274 396.735 173.655 396.419 173.074 396.048C172.504 395.677 172.003 395.257 171.57 394.787C171.149 394.317 170.815 393.804 170.568 393.248C170.32 392.679 170.197 392.079 170.197 391.449V390.503ZM169.937 400.314H171.459V406.694H169.937V400.314ZM163.144 399.35H178.308V400.629H163.144V399.35ZM188.811 394.268H192.579V395.548H188.811V394.268ZM192.115 389.909H193.655V399.906H192.115V389.909ZM188.124 400.425C189.287 400.425 190.284 400.549 191.112 400.796C191.954 401.044 192.597 401.402 193.043 401.872C193.488 402.329 193.711 402.892 193.711 403.56C193.711 404.549 193.21 405.315 192.207 405.86C191.217 406.404 189.857 406.676 188.124 406.676C186.392 406.676 185.025 406.404 184.022 405.86C183.032 405.315 182.538 404.549 182.538 403.56C182.538 402.892 182.76 402.329 183.206 401.872C183.663 401.402 184.307 401.044 185.136 400.796C185.978 400.549 186.973 400.425 188.124 400.425ZM188.124 401.631C187.282 401.631 186.559 401.705 185.953 401.853C185.347 402.002 184.876 402.218 184.542 402.503C184.22 402.787 184.06 403.14 184.06 403.56C184.06 403.956 184.22 404.295 184.542 404.58C184.876 404.865 185.347 405.087 185.953 405.248C186.559 405.396 187.282 405.47 188.124 405.47C188.978 405.47 189.702 405.396 190.296 405.248C190.902 405.087 191.366 404.865 191.688 404.58C192.022 404.295 192.189 403.956 192.189 403.56C192.189 403.14 192.022 402.787 191.688 402.503C191.366 402.218 190.902 402.002 190.296 401.853C189.702 401.705 188.978 401.631 188.124 401.631ZM184.115 391.616H185.377V392.97C185.377 393.996 185.18 394.961 184.783 395.863C184.4 396.753 183.855 397.539 183.15 398.218C182.445 398.886 181.628 399.399 180.7 399.758L179.902 398.534C180.533 398.311 181.102 398.008 181.61 397.625C182.129 397.242 182.575 396.802 182.946 396.308C183.329 395.814 183.621 395.281 183.818 394.713C184.016 394.144 184.115 393.563 184.115 392.97V391.616ZM184.412 391.616H185.674V392.951C185.674 393.668 185.841 394.367 186.175 395.047C186.509 395.727 186.986 396.327 187.604 396.846C188.223 397.365 188.934 397.773 189.739 398.07L188.959 399.294C188.043 398.96 187.245 398.478 186.565 397.847C185.885 397.205 185.352 396.463 184.969 395.622C184.598 394.781 184.412 393.89 184.412 392.951V391.616ZM180.385 391.133H189.349V392.395H180.385V391.133Z" fill="#363636"/>
<g filter="url(#filter2_d_352_882)">
<path d="M290.464 446.978H57.536C49.8482 446.978 43.616 453.206 43.616 460.888V474.798C43.616 482.48 49.8482 488.708 57.536 488.708H290.464C298.152 488.708 304.384 482.48 304.384 474.798V460.888C304.384 453.206 298.152 446.978 290.464 446.978Z" fill="white"/>
</g>
<path d="M171.162 463.466H175.988V464.727H171.162V463.466ZM171.162 467.083H176.025V468.344H171.162V467.083ZM175.412 460.406H176.953V472.814H175.412V460.406ZM166.17 475.54H177.343V476.801H166.17V475.54ZM166.17 471.608H167.71V476.171H166.17V471.608ZM163.961 461.519H165.501V464.467H170.03V461.519H171.552V469.957H163.961V461.519ZM165.501 465.673V468.715H170.03V465.673H165.501ZM187.883 463.485H192.374V464.727H187.883V463.485ZM187.734 466.971H192.263V468.233H187.734V466.971ZM192.115 460.406H193.655V470.44H192.115V460.406ZM186.862 461.648H188.495C188.495 463.083 188.18 464.375 187.549 465.525C186.93 466.675 186.033 467.664 184.858 468.492C183.695 469.308 182.308 469.957 180.7 470.44L180.069 469.215C181.492 468.795 182.711 468.251 183.725 467.583C184.74 466.904 185.514 466.125 186.045 465.246C186.59 464.356 186.862 463.38 186.862 462.316V461.648ZM180.923 461.648H187.901V462.91H180.923V461.648ZM188.198 470.625C189.337 470.625 190.314 470.755 191.131 471.015C191.96 471.274 192.604 471.645 193.061 472.127C193.519 472.61 193.748 473.185 193.748 473.852C193.748 474.532 193.519 475.113 193.061 475.596C192.604 476.066 191.96 476.43 191.131 476.69C190.314 476.962 189.337 477.098 188.198 477.098C187.073 477.098 186.089 476.962 185.247 476.69C184.419 476.43 183.775 476.066 183.317 475.596C182.86 475.113 182.63 474.532 182.63 473.852C182.63 473.185 182.86 472.61 183.317 472.127C183.775 471.645 184.419 471.274 185.247 471.015C186.089 470.755 187.073 470.625 188.198 470.625ZM188.198 471.849C187.382 471.849 186.67 471.93 186.064 472.09C185.458 472.251 184.988 472.48 184.653 472.776C184.319 473.073 184.152 473.432 184.152 473.852C184.152 474.272 184.319 474.631 184.653 474.928C184.988 475.225 185.458 475.454 186.064 475.614C186.67 475.775 187.382 475.855 188.198 475.855C189.027 475.855 189.739 475.775 190.333 475.614C190.927 475.454 191.391 475.225 191.725 474.928C192.059 474.631 192.226 474.272 192.226 473.852C192.226 473.432 192.059 473.073 191.725 472.776C191.391 472.48 190.927 472.251 190.333 472.09C189.739 471.93 189.027 471.849 188.198 471.849Z" fill="#363636"/>
<path d="M283.314 224.21C282.719 223.438 281.995 222.768 281.323 222.099C279.592 220.553 277.627 219.445 275.973 217.822C272.122 214.062 271.269 207.853 273.725 203.087C271.269 203.68 269.124 205.019 267.289 206.488C260.594 211.846 257.958 221.299 261.111 229.415C261.214 229.671 261.318 229.929 261.318 230.264C261.318 230.832 260.93 231.346 260.414 231.552C259.819 231.81 259.199 231.655 258.708 231.243C258.561 231.121 258.438 230.973 258.346 230.806C255.425 227.121 254.96 221.841 256.924 217.616C252.608 221.12 250.256 227.044 250.592 232.634C250.747 233.922 250.902 235.21 251.341 236.499C251.703 238.044 252.401 239.589 253.176 240.954C255.967 245.411 260.801 248.606 265.996 249.249C271.527 249.945 277.446 248.941 281.685 245.128C286.415 240.851 288.07 233.999 285.64 228.127L285.303 227.457C284.761 226.272 283.314 224.21 283.314 224.21ZM275.146 240.44C274.423 241.058 273.234 241.728 272.303 241.986C269.408 243.016 266.513 241.573 264.808 239.873C267.883 239.152 269.719 236.884 270.261 234.592C270.7 232.531 269.874 230.832 269.538 228.848C269.227 226.941 269.279 225.319 269.977 223.541C270.467 224.52 270.984 225.498 271.605 226.272C273.595 228.848 276.723 229.981 277.395 233.485C277.498 233.845 277.55 234.206 277.55 234.592C277.627 236.704 276.697 239.023 275.146 240.44Z" fill="url(#paint1_linear_352_882)"/>
<path d="M0 0.927338H348V89.952H0V0.927338Z" fill="white"/>
<path d="M299.673 19.6643C299.673 19.0078 300.205 18.4755 300.862 18.4755H317.221C317.878 18.4755 318.411 19.0078 318.411 19.6643V25.3117C318.411 25.9682 317.878 26.5005 317.221 26.5005H300.862C300.205 26.5005 299.673 25.9682 299.673 25.3117V19.6643Z" fill="black"/>
<path opacity="0.4" d="M317.221 16.6921C318.864 16.6921 320.195 18.0228 320.195 19.6643V25.3116C320.195 26.9531 318.864 28.2839 317.221 28.2839H300.862C299.22 28.2839 297.888 26.9531 297.888 25.3116V19.6643C297.888 18.0228 299.22 16.6921 300.862 16.6921H317.221ZM300.862 17.5841C299.712 17.5841 298.781 18.5153 298.781 19.6643V25.3116C298.781 26.4607 299.712 27.3918 300.862 27.3918H317.221C318.371 27.3918 319.303 26.4607 319.303 25.3116V19.6643C319.303 18.5153 318.371 17.5841 317.221 17.5841H300.862ZM321.088 20.6107C321.94 20.8122 322.576 21.5746 322.576 22.488C322.576 23.4013 321.94 24.1638 321.088 24.3653V20.6107Z" fill="black"/>
<path d="M254.458 23.2297C255.021 23.2297 255.478 23.6869 255.478 24.2503V26.8005C255.477 27.3637 255.021 27.8202 254.458 27.8202H253.437C252.874 27.8202 252.416 27.3637 252.416 26.8005V24.2503C252.416 23.6869 252.874 23.2297 253.437 23.2297H254.458ZM259.144 21.7001C259.656 21.7001 260.072 22.1153 260.072 22.6275V26.8928C260.072 27.405 259.656 27.8202 259.144 27.8202H257.938C257.425 27.8202 257.01 27.405 257.01 26.8928V22.6275C257.01 22.1153 257.425 21.7001 257.938 21.7001H259.144ZM263.738 19.6598C264.25 19.6598 264.666 20.0749 264.666 20.5871V26.8928C264.666 27.4049 264.25 27.8202 263.738 27.8202H262.531C262.019 27.8202 261.603 27.4049 261.603 26.8928V20.5871C261.603 20.0749 262.019 19.6598 262.531 19.6598H263.738ZM268.331 17.6194C268.843 17.6195 269.259 18.0347 269.259 18.5468V26.8928C269.259 27.4049 268.843 27.8201 268.331 27.8202H267.125C266.613 27.8202 266.197 27.405 266.197 26.8928V18.5468C266.197 18.0346 266.613 17.6194 267.125 17.6194H268.331Z" fill="black"/>
<path d="M275.032 27.8202H280.824V26.4446H276.669V18.6726H275.032V27.8202Z" fill="black"/>
<path d="M282.331 27.8202H283.962V20.0483H286.695V18.6726H279.591V20.0483H282.331V27.8202Z" fill="black"/>
<path d="M287.169 27.8202H293.094V26.4446H288.806V23.8391H292.859V22.5142H288.806V20.0483H293.094V18.6726H287.169V27.8202Z" fill="black"/>
<path d="M40.6878 17.5352V29.6749H38.4871V19.675H38.4159L35.5746 21.4889V19.4735L38.5939 17.5352H40.6878ZM47.6559 17.3692C48.2372 17.3732 48.8026 17.4759 49.3523 17.6774C49.906 17.875 50.4042 18.1991 50.8472 18.6496C51.29 19.0961 51.642 19.6948 51.903 20.4456C52.164 21.1964 52.2945 22.1251 52.2945 23.2315C52.2985 24.2748 52.1877 25.2074 51.9623 26.0294C51.7408 26.8474 51.4225 27.5389 51.0073 28.1041C50.5921 28.6692 50.0919 29.0999 49.5066 29.3963C48.9213 29.6927 48.2629 29.8409 47.5312 29.8409C46.7641 29.8409 46.0839 29.6906 45.4907 29.3904C44.9015 29.09 44.4249 28.679 44.0612 28.1574C43.6973 27.6358 43.4739 27.0391 43.3909 26.3672H45.556C45.6667 26.8494 45.8921 27.2327 46.2322 27.5172C46.5762 27.7979 47.0092 27.9381 47.5312 27.9381C48.3736 27.9381 49.0222 27.5726 49.4769 26.8415C49.9317 26.1104 50.159 25.0948 50.159 23.7947H50.076C49.8822 24.1425 49.6311 24.4428 49.3226 24.6957C49.0142 24.9446 48.6642 25.1363 48.2727 25.2707C47.8852 25.405 47.4739 25.4722 47.0389 25.4722C46.3271 25.4722 45.6865 25.3023 45.117 24.9624C44.5515 24.6226 44.1026 24.1563 43.7705 23.5635C43.4423 22.9708 43.2762 22.2931 43.2722 21.5303C43.2722 20.7401 43.4542 20.0306 43.8179 19.4024C44.1857 18.7701 44.6979 18.2721 45.3542 17.9086C46.0107 17.5411 46.7779 17.3613 47.6559 17.3692ZM47.6617 19.1474C47.2346 19.1474 46.8491 19.2522 46.505 19.4616C46.1649 19.6671 45.896 19.9477 45.6983 20.3034C45.5046 20.655 45.4077 21.0482 45.4077 21.4829C45.4116 21.9137 45.5085 22.3049 45.6983 22.6566C45.8921 23.0083 46.1551 23.2869 46.4872 23.4924C46.8234 23.6979 47.207 23.8006 47.638 23.8006C47.9583 23.8006 48.2569 23.7394 48.5337 23.6168C48.8106 23.4943 49.0518 23.3245 49.2574 23.1071C49.467 22.8858 49.6292 22.6349 49.7439 22.3543C49.8625 22.0738 49.9198 21.7774 49.9158 21.4651C49.9158 21.0502 49.817 20.6669 49.6192 20.3152C49.4255 19.9635 49.1586 19.6809 48.8185 19.4676C48.4823 19.2542 48.0968 19.1474 47.6617 19.1474ZM55.2823 28.2167C54.9224 28.2167 54.6139 28.0902 54.3569 27.8374C54.0998 27.5805 53.9733 27.2722 53.9772 26.9126C53.9733 26.557 54.0998 26.2527 54.3569 25.9997C54.6139 25.7469 54.9224 25.6204 55.2823 25.6204C55.6303 25.6204 55.9328 25.7469 56.1898 25.9997C56.4508 26.2527 56.5833 26.557 56.5872 26.9126C56.5833 27.1536 56.52 27.373 56.3974 27.5706C56.2787 27.7682 56.1206 27.9262 55.9229 28.0448C55.7291 28.1594 55.5156 28.2167 55.2823 28.2167ZM55.2823 22.2002C54.9224 22.2002 54.6139 22.0738 54.3569 21.8208C54.0998 21.564 53.9733 21.2557 53.9772 20.8961C53.9733 20.5405 54.0998 20.2361 54.3569 19.9833C54.6139 19.7264 54.9224 19.5979 55.2823 19.5979C55.6303 19.5979 55.9328 19.7264 56.1898 19.9833C56.4508 20.2361 56.5833 20.5405 56.5872 20.8961C56.5833 21.1332 56.52 21.3505 56.3974 21.5481C56.2787 21.7458 56.1206 21.9038 55.9229 22.0224C55.7291 22.1409 55.5156 22.2002 55.2823 22.2002ZM62.9369 29.9061C61.9601 29.9061 61.1217 29.6591 60.4217 29.1651C59.7257 28.6672 59.1899 27.9499 58.8142 27.0134C58.4425 26.0729 58.2566 24.9407 58.2566 23.6168C58.2606 22.2931 58.4484 21.1668 58.8202 20.2382C59.1958 19.3056 59.7316 18.5942 60.4276 18.1042C61.1276 17.6142 61.964 17.3692 62.9369 17.3692C63.9097 17.3692 64.746 17.6142 65.446 18.1042C66.146 18.5942 66.6818 19.3056 67.0535 20.2382C67.4292 21.1707 67.617 22.297 67.617 23.6168C67.617 24.9446 67.4292 26.0788 67.0535 27.0194C66.6818 27.9559 66.146 28.6711 65.446 29.1651C64.75 29.6591 63.9136 29.9061 62.9369 29.9061ZM62.9369 28.0507C63.6961 28.0507 64.2952 27.6773 64.7342 26.9304C65.1771 26.1796 65.3986 25.0751 65.3986 23.6168C65.3986 22.6527 65.2977 21.8426 65.096 21.1866C64.8943 20.5306 64.6096 20.0366 64.2418 19.7047C63.8741 19.3688 63.4391 19.2009 62.9369 19.2009C62.1815 19.2009 61.5844 19.5762 61.1455 20.327C60.7065 21.0739 60.485 22.1706 60.4811 23.6168C60.4771 24.5851 60.574 25.3991 60.7717 26.0591C60.9734 26.719 61.2581 27.2169 61.6259 27.5528C61.9937 27.8847 62.4306 28.0507 62.9369 28.0507ZM69.2538 29.6749V28.0863L73.4713 23.9548C73.8746 23.5478 74.2109 23.1861 74.4797 22.87C74.7486 22.5538 74.9503 22.2476 75.0848 21.9513C75.2192 21.6549 75.2865 21.3387 75.2865 21.0028C75.2865 20.6195 75.1995 20.2915 75.0255 20.0189C74.8515 19.7422 74.6122 19.5288 74.3077 19.3786C74.0032 19.2285 73.6572 19.1534 73.2697 19.1534C72.8703 19.1534 72.5202 19.2364 72.2197 19.4024C71.9192 19.5644 71.6859 19.7956 71.5198 20.0959C71.3576 20.3962 71.2765 20.7539 71.2765 21.1688H69.1826C69.1826 20.3981 69.3586 19.7283 69.7105 19.1593C70.0625 18.5903 70.5469 18.1496 71.1639 17.8375C71.7847 17.5252 72.4966 17.3692 73.2993 17.3692C74.114 17.3692 74.8297 17.5214 75.4466 17.8256C76.0635 18.1299 76.542 18.5468 76.8821 19.0763C77.2262 19.6058 77.3982 20.2105 77.3982 20.8902C77.3982 21.3446 77.3112 21.7912 77.1372 22.2298C76.9632 22.6685 76.6567 23.1545 76.2178 23.688C75.7828 24.2215 75.1718 24.8676 74.3849 25.6263L72.2909 27.7544V27.8374H77.5821V29.6749H69.2538Z" fill="black"/>
</g>
</g>
<defs>
<filter id="filter0_d_352_882" x="-2" y="326.278" width="351.072" height="454.687" filterUnits="userSpaceOnUse" color-interpolation-filters="sRGB">
<feFlood flood-opacity="0" result="BackgroundImageFix"/>
<feColorMatrix in="SourceAlpha" type="matrix" values="0 0 0 0 0 0 0 0 0 0 0 0 0 0 0 0 0 0 127 0" result="hardAlpha"/>
<feOffset/>
<feGaussianBlur stdDeviation="1"/>
<feComposite in2="hardAlpha" operator="out"/>
<feColorMatrix type="matrix" values="0 0 0 0 0.2 0 0 0 0 0.415686 0 0 0 0 0.972549 0 0 0 1 0"/>
<feBlend mode="normal" in2="BackgroundImageFix" result="effect1_dropShadow_352_882"/>
<feBlend mode="normal" in="SourceGraphic" in2="effect1_dropShadow_352_882" result="shape"/>
</filter>
<filter id="filter1_d_352_882" x="41.616" y="374.5" width="264.768" height="45.7303" filterUnits="userSpaceOnUse" color-interpolation-filters="sRGB">
<feFlood flood-opacity="0" result="BackgroundImageFix"/>
<feColorMatrix in="SourceAlpha" type="matrix" values="0 0 0 0 0 0 0 0 0 0 0 0 0 0 0 0 0 0 127 0" result="hardAlpha"/>
<feOffset/>
<feGaussianBlur stdDeviation="1"/>
<feComposite in2="hardAlpha" operator="out"/>
<feColorMatrix type="matrix" values="0 0 0 0 0 0 0 0 0 0 0 0 0 0 0 0 0 0 0.25 0"/>
<feBlend mode="normal" in2="BackgroundImageFix" result="effect1_dropShadow_352_882"/>
<feBlend mode="normal" in="SourceGraphic" in2="effect1_dropShadow_352_882" result="shape"/>
</filter>
<filter id="filter2_d_352_882" x="41.616" y="444.978" width="264.768" height="45.7303" filterUnits="userSpaceOnUse" color-interpolation-filters="sRGB">
<feFlood flood-opacity="0" result="BackgroundImageFix"/>
<feColorMatrix in="SourceAlpha" type="matrix" values="0 0 0 0 0 0 0 0 0 0 0 0 0 0 0 0 0 0 127 0" result="hardAlpha"/>
<feOffset/>
<feGaussianBlur stdDeviation="1"/>
<feComposite in2="hardAlpha" operator="out"/>
<feColorMatrix type="matrix" values="0 0 0 0 0 0 0 0 0 0 0 0 0 0 0 0 0 0 0.25 0"/>
<feBlend mode="normal" in2="BackgroundImageFix" result="effect1_dropShadow_352_882"/>
<feBlend mode="normal" in="SourceGraphic" in2="effect1_dropShadow_352_882" result="shape"/>
</filter>
<linearGradient id="paint0_linear_352_882" x1="269.12" y1="167.849" x2="269.12" y2="288.403" gradientUnits="userSpaceOnUse">
<stop stop-color="#336AF8"/>
<stop offset="0.1875" stop-color="white"/>
</linearGradient>
<linearGradient id="paint1_linear_352_882" x1="268.656" y1="203.087" x2="268.656" y2="249.454" gradientUnits="userSpaceOnUse">
<stop stop-color="#336AF8"/>
<stop offset="1" stop-color="white"/>
</linearGradient>
<clipPath id="clip0_352_882">
<path d="M0 30C0 13.4315 13.4315 0 30 0H318C334.569 0 348 13.4315 348 30V753H0V30Z" fill="white"/>
</clipPath>
</defs>
</svg>
