<svg width="39" height="50" viewBox="0 0 39 50" fill="none" xmlns="http://www.w3.org/2000/svg">
<path d="M35.2948 22.7784C34.6542 21.9451 33.8744 21.2228 33.1502 20.5006C31.2841 18.8339 29.1674 17.6394 27.3848 15.8893C23.2349 11.8337 22.3158 5.13904 24.9617 0C22.3158 0.638907 20.0041 2.08339 18.0266 3.66677C10.8129 9.44471 7.97197 19.6395 11.3699 28.3897C11.4813 28.6675 11.5927 28.9453 11.5927 29.3064C11.5927 29.9175 11.175 30.4731 10.6179 30.6953C9.97732 30.9731 9.30887 30.8064 8.77968 30.362C8.6216 30.2299 8.4894 30.0698 8.38975 29.8897C5.24247 25.9174 4.74113 20.2228 6.85789 15.6671C2.2066 19.445 -0.327939 25.8341 0.0341375 31.862C0.20125 33.2509 0.368362 34.6399 0.841847 36.0288C1.23178 37.6955 1.98378 39.3622 2.81934 40.8345C5.82736 45.6402 11.0357 49.0847 16.634 49.7792C22.5943 50.5292 28.9724 49.4459 33.5401 45.3346C38.6371 40.7234 40.4196 33.3343 37.8015 27.0008L37.4394 26.2785C36.8545 25.0007 35.2948 22.7784 35.2948 22.7784ZM26.4936 40.2789C25.7137 40.9456 24.4325 41.6679 23.4299 41.9456C20.3104 43.0568 17.191 41.5012 15.3528 39.6678C18.6672 38.89 20.6446 36.4455 21.2295 33.9732C21.703 31.7509 20.8118 29.9175 20.4497 27.7786C20.1155 25.723 20.1712 23.9729 20.9232 22.0562C21.4524 23.1118 22.0094 24.1674 22.6779 25.0007C24.8225 27.7786 28.1926 29.0008 28.9167 32.7787C29.0281 33.1676 29.0838 33.5565 29.0838 33.9732C29.1674 36.251 28.1647 38.7511 26.4936 40.2789Z" fill="url(#paint0_linear_137_1420)"/>
<defs>
<linearGradient id="paint0_linear_137_1420" x1="19.5" y1="0" x2="19.5" y2="50" gradientUnits="userSpaceOnUse">
<stop stop-color="#336AF8"/>
<stop offset="1" stop-color="white"/>
</linearGradient>
</defs>
</svg>
