<svg width="30" height="30" viewBox="0 0 30 30" fill="none" xmlns="http://www.w3.org/2000/svg">
<path d="M16.2249 3.49245C15.8222 3.13067 15.3 2.93054 14.7587 2.93054C14.2174 2.93054 13.6952 3.13067 13.2926 3.49245L5.24883 10.7201C5.01986 10.9257 4.83669 11.1771 4.71122 11.458C4.58574 11.7389 4.52076 12.0431 4.52051 12.3508V22.6687C4.52051 23.2506 4.75163 23.8085 5.16304 24.22C5.57445 24.6314 6.13244 24.8625 6.71426 24.8625H9.63926C10.2211 24.8625 10.7791 24.6314 11.1905 24.22C11.6019 23.8085 11.833 23.2506 11.833 22.6687V16.8187C11.833 16.6248 11.91 16.4388 12.0472 16.3017C12.1843 16.1645 12.3703 16.0875 12.5643 16.0875H16.9518C17.1457 16.0875 17.3317 16.1645 17.4688 16.3017C17.606 16.4388 17.683 16.6248 17.683 16.8187V22.6687C17.683 23.2506 17.9141 23.8085 18.3255 24.22C18.7369 24.6314 19.2949 24.8625 19.8768 24.8625H22.8018C23.3836 24.8625 23.9416 24.6314 24.353 24.22C24.7644 23.8085 24.9955 23.2506 24.9955 22.6687V12.3508C24.9954 12.0432 24.9307 11.7391 24.8055 11.4582C24.6802 11.1772 24.4973 10.9258 24.2686 10.7201L16.2249 3.49245Z" fill="#ACACAC"/>
</svg>
