<svg width="39" height="39" viewBox="0 0 39 39" fill="none" xmlns="http://www.w3.org/2000/svg">
<path d="M19.4999 37.375C17.0578 37.3748 14.6721 36.6409 12.652 35.2685C10.632 33.8961 9.07085 31.9485 8.171 29.6782C7.27115 27.4079 7.0741 24.9197 7.6054 22.536C8.1367 20.1524 9.37184 17.9834 11.1507 16.3101C13.3314 14.2577 18.6874 10.5625 17.8749 2.4375C27.6249 8.9375 32.4999 15.4375 22.7499 25.1875C24.3749 25.1875 26.8124 25.1875 30.8749 21.1737C31.3137 22.4299 31.6874 23.7802 31.6874 25.1875C31.6874 28.4198 30.4034 31.5198 28.1178 33.8054C25.8322 36.091 22.7323 37.375 19.4999 37.375Z" fill="url(#paint0_linear_137_998)"/>
<defs>
<linearGradient id="paint0_linear_137_998" x1="19.5005" y1="2.4375" x2="19.5005" y2="37.375" gradientUnits="userSpaceOnUse">
<stop stop-color="#336AF8"/>
<stop offset="1" stop-color="white"/>
</linearGradient>
</defs>
</svg>
