<svg width="25" height="25" viewBox="0 0 25 25" fill="none" xmlns="http://www.w3.org/2000/svg">
<path d="M12.5326 23.6711C10.9859 23.671 9.47495 23.2062 8.19558 22.337C6.91621 21.4678 5.92747 20.2343 5.35756 18.7964C4.78765 17.3586 4.66285 15.7826 4.99934 14.273C5.33583 12.7633 6.1181 11.3896 7.24471 10.3299C8.62587 9.03 12.018 6.68965 11.5035 1.54376C17.6785 5.66047 20.7661 9.77719 14.591 15.9523C15.6202 15.9523 17.1639 15.9523 19.7369 13.4102C20.0148 14.2057 20.2515 15.061 20.2515 15.9523C20.2515 17.9994 19.4382 19.9627 17.9907 21.4103C16.5431 22.8579 14.5798 23.6711 12.5326 23.6711Z" fill="#ACACAC"/>
</svg>
